<svg xmlns="http://www.w3.org/2000/svg" width="960" height="1260" viewBox="0 0 960 1260">
  <!-- Fondo y patrón de puntos -->
  <rect width="960" height="1260" fill="#0d0b1e"/>
  <defs>
    <pattern id="g" x="0" y="0" width="28" height="28" patternUnits="userSpaceOnUse">
      <circle cx="0" cy="0" r="1" fill="#1a1733"/>
    </pattern>
  </defs>
  <rect width="960" height="1260" fill="url(#g)"/>
  
  <!-- Título -->
  <text x="480" y="22" font-size="11" font-weight="600" fill="#4a4570" text-anchor="middle" font-family="system-ui,sans-serif">Transcendence — ERD</text>

  <!-- ═══════════════════════════════════════════════════
       CONEXIONES (Rutas)
  ════════════════════════════════════════════════════ -->
  <g stroke="#7C6AFA" stroke-width="1.3" stroke-dasharray="5 3" fill="none" opacity="0.45">
    <!-- sessions.user_id -> users.id -->
    <path d="M240,129 C300,129 300,357 380,357"/>
    <!-- friendships.user_id -> users.id -->
    <path d="M240,279 C300,279 300,357 380,357"/>
    <!-- friendships.friend_id -> users.id -->
    <path d="M240,301 C300,301 300,357 380,357"/>
    <!-- messages.sender_id -> users.id -->
    <path d="M240,489 C300,489 300,357 380,357"/>
    <!-- messages.receiver_id -> users.id -->
    <path d="M240,511 C300,511 300,357 380,357"/>
    <!-- notifications.user_id -> users.id -->
    <path d="M240,709 C300,709 300,357 380,357"/>
    <!-- user_achievements.user_id -> users.id -->
    <path d="M240,1099 C300,1099 300,357 380,357"/>
    
    <!-- user_achievements.achievement_id -> achievements.id -->
    <path d="M40,1121 L20,1121 L20,929 L40,929"/>
    
    <!-- user_stats.user_id -> users.id -->
    <path d="M720,87 C660,87 660,357 580,357"/>
    <!-- matches.player1_id -> users.id -->
    <path d="M720,379 C660,379 660,357 580,357"/>
    <!-- matches.player2_id -> users.id -->
    <path d="M720,401 C660,401 660,357 580,357"/>
    <!-- matches.winner_id -> users.id -->
    <path d="M720,423 C660,423 660,357 580,357"/>
    <!-- tournaments.created_by -> users.id -->
    <path d="M720,753 C660,753 660,357 580,357"/>
    <!-- spectators.user_id -> users.id (derecha) -->
    <path d="M580,709 C640,709 640,357 580,357"/>
    
    <!-- spectators.tournament_id -> tournaments.id -->
    <path d="M580,731 C650,731 650,687 720,687"/>
    
    <!-- tournament_players.tournament_id -> tournaments.id -->
    <path d="M720,887 L740,887 L740,687 L720,687"/>
    <!-- tournament_players.user_id -> users.id -->
    <path d="M720,909 C760,909 760,357 580,357"/>

    <!-- tournament_matches.tournament_id -> tournaments.id -->
    <path d="M720,1059 L740,1059 L740,687 L720,687"/>
    <!-- tournament_matches.match_id -> matches.id -->
    <path d="M720,1081 C700,1081 700,357 720,357"/>
  </g>

  <!-- ═══════════════════════════════════════════════════
       TABLA: users  (11 columnas → height 288)
  ════════════════════════════════════════════════════ -->
  <rect x="381" y="314" width="200" height="288" rx="10" fill="#000" opacity="0.35"/>
  <rect x="380" y="310" width="200" height="288" rx="10" fill="#15122b"/>
  <rect x="380" y="310" width="200" height="36" rx="10" fill="#1a1640"/>
  <rect x="380" y="330" width="200" height="16" fill="#1a1640"/>
  <rect x="380" y="310" width="4" height="36" rx="2" fill="#7C6AFA"/>
  <text x="394" y="333" font-size="12" font-weight="700" fill="#e0ddff" font-family="system-ui,sans-serif">users</text>
  <line x1="380" y1="346" x2="580" y2="346" stroke="#2e2a52" stroke-width="0.5"/>
  <rect x="380" y="310" width="200" height="288" rx="10" fill="none" stroke="#2e2a52" stroke-width="0.8"/>
  <!-- id -->
  <rect x="381" y="346" width="198" height="22" fill="#1b1735"/>
  <circle cx="393" cy="357" r="5" fill="#F59E42"/>
  <text x="393" y="361" font-size="6" font-weight="800" fill="#1a0a00" text-anchor="middle" font-family="system-ui,sans-serif">PK</text>
  <text x="404" y="361" font-size="11" font-weight="600" fill="#F59E42" font-family="system-ui,sans-serif">id</text>
  <!-- username -->
  <rect x="381" y="368" width="198" height="22" fill="#15122b"/>
  <circle cx="393" cy="379" r="2" fill="#2e2a52"/>
  <text x="404" y="383" font-size="11" font-weight="400" fill="#ccc8f0" font-family="system-ui,sans-serif">username</text>
  <!-- email -->
  <rect x="381" y="390" width="198" height="22" fill="#1b1735"/>
  <circle cx="393" cy="401" r="2" fill="#2e2a52"/>
  <text x="404" y="405" font-size="11" font-weight="400" fill="#ccc8f0" font-family="system-ui,sans-serif">email</text>
  <!-- password_hash -->
  <rect x="381" y="412" width="198" height="22" fill="#15122b"/>
  <circle cx="393" cy="423" r="2" fill="#2e2a52"/>
  <text x="404" y="427" font-size="11" font-weight="400" fill="#ccc8f0" font-family="system-ui,sans-serif">password_hash</text>
  <!-- avatar_url -->
  <rect x="381" y="434" width="198" height="22" fill="#1b1735"/>
  <circle cx="393" cy="445" r="2" fill="#2e2a52"/>
  <text x="404" y="449" font-size="11" font-weight="400" fill="#ccc8f0" font-family="system-ui,sans-serif">avatar_url</text>
  <!-- is_online -->
  <rect x="381" y="456" width="198" height="22" fill="#15122b"/>
  <circle cx="393" cy="467" r="2" fill="#2e2a52"/>
  <text x="404" y="471" font-size="11" font-weight="400" fill="#ccc8f0" font-family="system-ui,sans-serif">is_online</text>
  <!-- role -->
  <rect x="381" y="478" width="198" height="22" fill="#1b1735"/>
  <circle cx="393" cy="489" r="2" fill="#2e2a52"/>
  <text x="404" y="493" font-size="11" font-weight="400" fill="#ccc8f0" font-family="system-ui,sans-serif">role</text>
  <!-- totp_secret -->
  <rect x="381" y="500" width="198" height="22" fill="#15122b"/>
  <circle cx="393" cy="511" r="2" fill="#2e2a52"/>
  <text x="404" y="515" font-size="11" font-weight="400" fill="#ccc8f0" font-family="system-ui,sans-serif">totp_secret</text>
  <!-- totp_enabled -->
  <rect x="381" y="522" width="198" height="22" fill="#1b1735"/>
  <circle cx="393" cy="533" r="2" fill="#2e2a52"/>
  <text x="404" y="537" font-size="11" font-weight="400" fill="#ccc8f0" font-family="system-ui,sans-serif">totp_enabled</text>
  <!-- created_at -->
  <rect x="381" y="544" width="198" height="22" fill="#15122b"/>
  <circle cx="393" cy="555" r="2" fill="#2e2a52"/>
  <text x="404" y="559" font-size="11" font-weight="400" fill="#ccc8f0" font-family="system-ui,sans-serif">created_at</text>
  <!-- FIX: updated_at -->
  <rect x="381" y="566" width="198" height="22" fill="#1b1735"/>
  <circle cx="393" cy="577" r="2" fill="#2e2a52"/>
  <text x="404" y="581" font-size="11" font-weight="400" fill="#ccc8f0" font-family="system-ui,sans-serif">updated_at</text>

  <!-- ═══════════════════════════════════════════════════
       TABLA: sessions  (4 columnas → height 134)
  ════════════════════════════════════════════════════ -->
  <rect x="41" y="64" width="200" height="134" rx="10" fill="#000" opacity="0.35"/>
  <rect x="40" y="60" width="200" height="134" rx="10" fill="#15122b"/>
  <rect x="40" y="60" width="200" height="36" rx="10" fill="#1a1640"/>
  <rect x="40" y="80" width="200" height="16" fill="#1a1640"/>
  <rect x="40" y="60" width="4" height="36" rx="2" fill="#7C6AFA"/>
  <text x="54" y="83" font-size="12" font-weight="700" fill="#e0ddff" font-family="system-ui,sans-serif">sessions</text>
  <line x1="40" y1="96" x2="240" y2="96" stroke="#2e2a52" stroke-width="0.5"/>
  <rect x="40" y="60" width="200" height="134" rx="10" fill="none" stroke="#2e2a52" stroke-width="0.8"/>
  <!-- token -->
  <rect x="41" y="96" width="198" height="22" fill="#1b1735"/>
  <circle cx="53" cy="107" r="5" fill="#F59E42"/>
  <text x="53" y="111" font-size="6" font-weight="800" fill="#1a0a00" text-anchor="middle" font-family="system-ui,sans-serif">PK</text>
  <text x="64" y="111" font-size="11" font-weight="600" fill="#F59E42" font-family="system-ui,sans-serif">token</text>
  <!-- user_id -->
  <rect x="41" y="118" width="198" height="22" fill="#15122b"/>
  <circle cx="53" cy="129" r="5" fill="#7C6AFA" opacity="0.75"/>
  <text x="53" y="133" font-size="6" font-weight="800" fill="white" text-anchor="middle" font-family="system-ui,sans-serif">FK</text>
  <text x="64" y="133" font-size="11" font-weight="500" fill="#7C6AFA" font-family="system-ui,sans-serif">user_id</text>
  <!-- expires_at -->
  <rect x="41" y="140" width="198" height="22" fill="#1b1735"/>
  <circle cx="53" cy="151" r="2" fill="#2e2a52"/>
  <text x="64" y="155" font-size="11" font-weight="400" fill="#ccc8f0" font-family="system-ui,sans-serif">expires_at</text>
  <!-- FIX: created_at -->
  <rect x="41" y="162" width="198" height="22" fill="#15122b"/>
  <circle cx="53" cy="173" r="2" fill="#2e2a52"/>
  <text x="64" y="177" font-size="11" font-weight="400" fill="#ccc8f0" font-family="system-ui,sans-serif">created_at</text>

  <!-- ═══════════════════════════════════════════════════
       TABLA: friendships  (6 columnas → height 178)
  ════════════════════════════════════════════════════ -->
  <rect x="41" y="224" width="200" height="178" rx="10" fill="#000" opacity="0.35"/>
  <rect x="40" y="220" width="200" height="178" rx="10" fill="#15122b"/>
  <rect x="40" y="220" width="200" height="36" rx="10" fill="#1a1640"/>
  <rect x="40" y="240" width="200" height="16" fill="#1a1640"/>
  <rect x="40" y="220" width="4" height="36" rx="2" fill="#6AD4FA"/>
  <text x="54" y="243" font-size="12" font-weight="700" fill="#e0ddff" font-family="system-ui,sans-serif">friendships</text>
  <line x1="40" y1="256" x2="240" y2="256" stroke="#2e2a52" stroke-width="0.5"/>
  <rect x="40" y="220" width="200" height="178" rx="10" fill="none" stroke="#2e2a52" stroke-width="0.8"/>
  <!-- id -->
  <rect x="41" y="256" width="198" height="22" fill="#1b1735"/>
  <circle cx="53" cy="267" r="5" fill="#F59E42"/>
  <text x="53" y="271" font-size="6" font-weight="800" fill="#1a0a00" text-anchor="middle" font-family="system-ui,sans-serif">PK</text>
  <text x="64" y="271" font-size="11" font-weight="600" fill="#F59E42" font-family="system-ui,sans-serif">id</text>
  <!-- user_id -->
  <rect x="41" y="278" width="198" height="22" fill="#15122b"/>
  <circle cx="53" cy="289" r="5" fill="#7C6AFA" opacity="0.75"/>
  <text x="53" y="293" font-size="6" font-weight="800" fill="white" text-anchor="middle" font-family="system-ui,sans-serif">FK</text>
  <text x="64" y="293" font-size="11" font-weight="500" fill="#7C6AFA" font-family="system-ui,sans-serif">user_id</text>
  <!-- friend_id -->
  <rect x="41" y="300" width="198" height="22" fill="#1b1735"/>
  <circle cx="53" cy="311" r="5" fill="#7C6AFA" opacity="0.75"/>
  <text x="53" y="315" font-size="6" font-weight="800" fill="white" text-anchor="middle" font-family="system-ui,sans-serif">FK</text>
  <text x="64" y="315" font-size="11" font-weight="500" fill="#7C6AFA" font-family="system-ui,sans-serif">friend_id</text>
  <!-- status -->
  <rect x="41" y="322" width="198" height="22" fill="#15122b"/>
  <circle cx="53" cy="333" r="2" fill="#2e2a52"/>
  <text x="64" y="337" font-size="11" font-weight="400" fill="#ccc8f0" font-family="system-ui,sans-serif">status</text>
  <!-- FIX: created_at -->
  <rect x="41" y="344" width="198" height="22" fill="#1b1735"/>
  <circle cx="53" cy="355" r="2" fill="#2e2a52"/>
  <text x="64" y="359" font-size="11" font-weight="400" fill="#ccc8f0" font-family="system-ui,sans-serif">created_at</text>
  <!-- updated_at -->
  <rect x="41" y="366" width="198" height="22" fill="#15122b"/>
  <circle cx="53" cy="377" r="2" fill="#2e2a52"/>
  <text x="64" y="381" font-size="11" font-weight="400" fill="#ccc8f0" font-family="system-ui,sans-serif">updated_at</text>

  <!-- ═══════════════════════════════════════════════════
       TABLA: messages  (6 columnas → height 178)
  ════════════════════════════════════════════════════ -->
  <rect x="41" y="434" width="200" height="178" rx="10" fill="#000" opacity="0.35"/>
  <rect x="40" y="430" width="200" height="178" rx="10" fill="#15122b"/>
  <rect x="40" y="430" width="200" height="36" rx="10" fill="#1a1640"/>
  <rect x="40" y="450" width="200" height="16" fill="#1a1640"/>
  <rect x="40" y="430" width="4" height="36" rx="2" fill="#6AD4FA"/>
  <text x="54" y="453" font-size="12" font-weight="700" fill="#e0ddff" font-family="system-ui,sans-serif">messages</text>
  <line x1="40" y1="466" x2="240" y2="466" stroke="#2e2a52" stroke-width="0.5"/>
  <rect x="40" y="430" width="200" height="178" rx="10" fill="none" stroke="#2e2a52" stroke-width="0.8"/>
  <!-- id -->
  <rect x="41" y="466" width="198" height="22" fill="#1b1735"/>
  <circle cx="53" cy="477" r="5" fill="#F59E42"/>
  <text x="53" y="481" font-size="6" font-weight="800" fill="#1a0a00" text-anchor="middle" font-family="system-ui,sans-serif">PK</text>
  <text x="64" y="481" font-size="11" font-weight="600" fill="#F59E42" font-family="system-ui,sans-serif">id</text>
  <!-- sender_id -->
  <rect x="41" y="488" width="198" height="22" fill="#15122b"/>
  <circle cx="53" cy="499" r="5" fill="#7C6AFA" opacity="0.75"/>
  <text x="53" y="503" font-size="6" font-weight="800" fill="white" text-anchor="middle" font-family="system-ui,sans-serif">FK</text>
  <text x="64" y="503" font-size="11" font-weight="500" fill="#7C6AFA" font-family="system-ui,sans-serif">sender_id</text>
  <!-- receiver_id -->
  <rect x="41" y="510" width="198" height="22" fill="#1b1735"/>
  <circle cx="53" cy="521" r="5" fill="#7C6AFA" opacity="0.75"/>
  <text x="53" y="525" font-size="6" font-weight="800" fill="white" text-anchor="middle" font-family="system-ui,sans-serif">FK</text>
  <text x="64" y="525" font-size="11" font-weight="500" fill="#7C6AFA" font-family="system-ui,sans-serif">receiver_id</text>
  <!-- content -->
  <rect x="41" y="532" width="198" height="22" fill="#15122b"/>
  <circle cx="53" cy="543" r="2" fill="#2e2a52"/>
  <text x="64" y="547" font-size="11" font-weight="400" fill="#ccc8f0" font-family="system-ui,sans-serif">content</text>
  <!-- is_read -->
  <rect x="41" y="554" width="198" height="22" fill="#1b1735"/>
  <circle cx="53" cy="565" r="2" fill="#2e2a52"/>
  <text x="64" y="569" font-size="11" font-weight="400" fill="#ccc8f0" font-family="system-ui,sans-serif">is_read</text>
  <!-- sent_at -->
  <rect x="41" y="576" width="198" height="22" fill="#15122b"/>
  <circle cx="53" cy="587" r="2" fill="#2e2a52"/>
  <text x="64" y="591" font-size="11" font-weight="400" fill="#ccc8f0" font-family="system-ui,sans-serif">sent_at</text>

  <!-- ═══════════════════════════════════════════════════
       TABLA: notifications  (6 columnas → height 178)
  ════════════════════════════════════════════════════ -->
  <rect x="41" y="644" width="200" height="178" rx="10" fill="#000" opacity="0.35"/>
  <rect x="40" y="640" width="200" height="178" rx="10" fill="#15122b"/>
  <rect x="40" y="640" width="200" height="36" rx="10" fill="#1a1640"/>
  <rect x="40" y="660" width="200" height="16" fill="#1a1640"/>
  <rect x="40" y="640" width="4" height="36" rx="2" fill="#6AD4FA"/>
  <text x="54" y="663" font-size="12" font-weight="700" fill="#e0ddff" font-family="system-ui,sans-serif">notifications</text>
  <line x1="40" y1="676" x2="240" y2="676" stroke="#2e2a52" stroke-width="0.5"/>
  <rect x="40" y="640" width="200" height="178" rx="10" fill="none" stroke="#2e2a52" stroke-width="0.8"/>
  <!-- id -->
  <rect x="41" y="676" width="198" height="22" fill="#1b1735"/>
  <circle cx="53" cy="687" r="5" fill="#F59E42"/>
  <text x="53" y="691" font-size="6" font-weight="800" fill="#1a0a00" text-anchor="middle" font-family="system-ui,sans-serif">PK</text>
  <text x="64" y="691" font-size="11" font-weight="600" fill="#F59E42" font-family="system-ui,sans-serif">id</text>
  <!-- user_id -->
  <rect x="41" y="698" width="198" height="22" fill="#15122b"/>
  <circle cx="53" cy="709" r="5" fill="#7C6AFA" opacity="0.75"/>
  <text x="53" y="713" font-size="6" font-weight="800" fill="white" text-anchor="middle" font-family="system-ui,sans-serif">FK</text>
  <text x="64" y="713" font-size="11" font-weight="500" fill="#7C6AFA" font-family="system-ui,sans-serif">user_id</text>
  <!-- type -->
  <rect x="41" y="720" width="198" height="22" fill="#1b1735"/>
  <circle cx="53" cy="731" r="2" fill="#2e2a52"/>
  <text x="64" y="735" font-size="11" font-weight="400" fill="#ccc8f0" font-family="system-ui,sans-serif">type</text>
  <!-- payload -->
  <rect x="41" y="742" width="198" height="22" fill="#15122b"/>
  <circle cx="53" cy="753" r="2" fill="#2e2a52"/>
  <text x="64" y="757" font-size="11" font-weight="400" fill="#ccc8f0" font-family="system-ui,sans-serif">payload</text>
  <!-- is_read -->
  <rect x="41" y="764" width="198" height="22" fill="#1b1735"/>
  <circle cx="53" cy="775" r="2" fill="#2e2a52"/>
  <text x="64" y="779" font-size="11" font-weight="400" fill="#ccc8f0" font-family="system-ui,sans-serif">is_read</text>
  <!-- created_at -->
  <rect x="41" y="786" width="198" height="22" fill="#15122b"/>
  <circle cx="53" cy="797" r="2" fill="#2e2a52"/>
  <text x="64" y="801" font-size="11" font-weight="400" fill="#ccc8f0" font-family="system-ui,sans-serif">created_at</text>

  <!-- ═══════════════════════════════════════════════════
       TABLA: achievements  (4 columnas → height 134)
  ════════════════════════════════════════════════════ -->
  <rect x="41" y="854" width="200" height="134" rx="10" fill="#000" opacity="0.35"/>
  <rect x="40" y="850" width="200" height="134" rx="10" fill="#15122b"/>
  <rect x="40" y="850" width="200" height="36" rx="10" fill="#1a1640"/>
  <rect x="40" y="870" width="200" height="16" fill="#1a1640"/>
  <rect x="40" y="850" width="4" height="36" rx="2" fill="#FAD46A"/>
  <text x="54" y="873" font-size="12" font-weight="700" fill="#e0ddff" font-family="system-ui,sans-serif">achievements</text>
  <line x1="40" y1="886" x2="240" y2="886" stroke="#2e2a52" stroke-width="0.5"/>
  <rect x="40" y="850" width="200" height="134" rx="10" fill="none" stroke="#2e2a52" stroke-width="0.8"/>
  <!-- id -->
  <rect x="41" y="886" width="198" height="22" fill="#1b1735"/>
  <circle cx="53" cy="897" r="5" fill="#F59E42"/>
  <text x="53" y="901" font-size="6" font-weight="800" fill="#1a0a00" text-anchor="middle" font-family="system-ui,sans-serif">PK</text>
  <text x="64" y="901" font-size="11" font-weight="600" fill="#F59E42" font-family="system-ui,sans-serif">id</text>
  <!-- key -->
  <rect x="41" y="908" width="198" height="22" fill="#15122b"/>
  <circle cx="53" cy="919" r="2" fill="#2e2a52"/>
  <text x="64" y="923" font-size="11" font-weight="400" fill="#ccc8f0" font-family="system-ui,sans-serif">key</text>
  <!-- name -->
  <rect x="41" y="930" width="198" height="22" fill="#1b1735"/>
  <circle cx="53" cy="941" r="2" fill="#2e2a52"/>
  <text x="64" y="945" font-size="11" font-weight="400" fill="#ccc8f0" font-family="system-ui,sans-serif">name</text>
  <!-- description -->
  <rect x="41" y="952" width="198" height="22" fill="#15122b"/>
  <circle cx="53" cy="963" r="2" fill="#2e2a52"/>
  <text x="64" y="967" font-size="11" font-weight="400" fill="#ccc8f0" font-family="system-ui,sans-serif">description</text>

  <!-- ═══════════════════════════════════════════════════
       TABLA: user_achievements  (3 columnas, PK+FK compuesta → height 112)
  ════════════════════════════════════════════════════ -->
  <rect x="41" y="1014" width="200" height="112" rx="10" fill="#000" opacity="0.35"/>
  <rect x="40" y="1010" width="200" height="112" rx="10" fill="#15122b"/>
  <rect x="40" y="1010" width="200" height="36" rx="10" fill="#1a1640"/>
  <rect x="40" y="1030" width="200" height="16" fill="#1a1640"/>
  <rect x="40" y="1010" width="4" height="36" rx="2" fill="#FAD46A"/>
  <text x="54" y="1033" font-size="12" font-weight="700" fill="#e0ddff" font-family="system-ui,sans-serif">user_achievements</text>
  <line x1="40" y1="1046" x2="240" y2="1046" stroke="#2e2a52" stroke-width="0.5"/>
  <rect x="40" y="1010" width="200" height="112" rx="10" fill="none" stroke="#2e2a52" stroke-width="0.8"/>
  <!-- user_id: PK+FK -->
  <rect x="41" y="1046" width="198" height="22" fill="#1b1735"/>
  <circle cx="53" cy="1057" r="5" fill="#F59E42"/>
  <text x="53" y="1061" font-size="6" font-weight="800" fill="#1a0a00" text-anchor="middle" font-family="system-ui,sans-serif">PK</text>
  <circle cx="68" cy="1057" r="5" fill="#7C6AFA" opacity="0.75"/>
  <text x="68" y="1061" font-size="6" font-weight="800" fill="white" text-anchor="middle" font-family="system-ui,sans-serif">FK</text>
  <text x="80" y="1061" font-size="11" font-weight="600" fill="#ccc8f0" font-family="system-ui,sans-serif">user_id</text>
  <!-- achievement_id: PK+FK -->
  <rect x="41" y="1068" width="198" height="22" fill="#15122b"/>
  <circle cx="53" cy="1079" r="5" fill="#F59E42"/>
  <text x="53" y="1083" font-size="6" font-weight="800" fill="#1a0a00" text-anchor="middle" font-family="system-ui,sans-serif">PK</text>
  <circle cx="68" cy="1079" r="5" fill="#7C6AFA" opacity="0.75"/>
  <text x="68" y="1083" font-size="6" font-weight="800" fill="white" text-anchor="middle" font-family="system-ui,sans-serif">FK</text>
  <text x="80" y="1083" font-size="11" font-weight="600" fill="#ccc8f0" font-family="system-ui,sans-serif">achievement_id</text>
  <!-- earned_at -->
  <rect x="41" y="1090" width="198" height="22" fill="#1b1735"/>
  <circle cx="53" cy="1101" r="2" fill="#2e2a52"/>
  <text x="64" y="1105" font-size="11" font-weight="400" fill="#ccc8f0" font-family="system-ui,sans-serif">earned_at</text>

  <!-- ═══════════════════════════════════════════════════
       TABLA: user_stats  (9 columnas → height 244)  FIX: updated_at
  ════════════════════════════════════════════════════ -->
  <rect x="721" y="44" width="200" height="244" rx="10" fill="#000" opacity="0.35"/>
  <rect x="720" y="40" width="200" height="244" rx="10" fill="#15122b"/>
  <rect x="720" y="40" width="200" height="36" rx="10" fill="#1a1640"/>
  <rect x="720" y="60" width="200" height="16" fill="#1a1640"/>
  <rect x="720" y="40" width="4" height="36" rx="2" fill="#FA8C6A"/>
  <text x="734" y="63" font-size="12" font-weight="700" fill="#e0ddff" font-family="system-ui,sans-serif">user_stats</text>
  <line x1="720" y1="76" x2="920" y2="76" stroke="#2e2a52" stroke-width="0.5"/>
  <rect x="720" y="40" width="200" height="244" rx="10" fill="none" stroke="#2e2a52" stroke-width="0.8"/>
  <!-- user_id PK+FK -->
  <rect x="721" y="76" width="198" height="22" fill="#1b1735"/>
  <circle cx="733" cy="87" r="5" fill="#F59E42"/>
  <text x="733" y="91" font-size="6" font-weight="800" fill="#1a0a00" text-anchor="middle" font-family="system-ui,sans-serif">PK</text>
  <circle cx="748" cy="87" r="5" fill="#7C6AFA" opacity="0.75"/>
  <text x="748" y="91" font-size="6" font-weight="800" fill="white" text-anchor="middle" font-family="system-ui,sans-serif">FK</text>
  <text x="760" y="91" font-size="11" font-weight="600" fill="#ccc8f0" font-family="system-ui,sans-serif">user_id</text>
  <!-- wins -->
  <rect x="721" y="98" width="198" height="22" fill="#15122b"/>
  <circle cx="733" cy="109" r="2" fill="#2e2a52"/>
  <text x="744" y="113" font-size="11" font-weight="400" fill="#ccc8f0" font-family="system-ui,sans-serif">wins</text>
  <!-- losses -->
  <rect x="721" y="120" width="198" height="22" fill="#1b1735"/>
  <circle cx="733" cy="131" r="2" fill="#2e2a52"/>
  <text x="744" y="135" font-size="11" font-weight="400" fill="#ccc8f0" font-family="system-ui,sans-serif">losses</text>
  <!-- draws -->
  <rect x="721" y="142" width="198" height="22" fill="#15122b"/>
  <circle cx="733" cy="153" r="2" fill="#2e2a52"/>
  <text x="744" y="157" font-size="11" font-weight="400" fill="#ccc8f0" font-family="system-ui,sans-serif">draws</text>
  <!-- win_streak -->
  <rect x="721" y="164" width="198" height="22" fill="#1b1735"/>
  <circle cx="733" cy="175" r="2" fill="#2e2a52"/>
  <text x="744" y="179" font-size="11" font-weight="400" fill="#ccc8f0" font-family="system-ui,sans-serif">win_streak</text>
  <!-- best_streak -->
  <rect x="721" y="186" width="198" height="22" fill="#15122b"/>
  <circle cx="733" cy="197" r="2" fill="#2e2a52"/>
  <text x="744" y="201" font-size="11" font-weight="400" fill="#ccc8f0" font-family="system-ui,sans-serif">best_streak</text>
  <!-- xp -->
  <rect x="721" y="208" width="198" height="22" fill="#1b1735"/>
  <circle cx="733" cy="219" r="2" fill="#2e2a52"/>
  <text x="744" y="223" font-size="11" font-weight="400" fill="#ccc8f0" font-family="system-ui,sans-serif">xp</text>
  <!-- level -->
  <rect x="721" y="230" width="198" height="22" fill="#15122b"/>
  <circle cx="733" cy="241" r="2" fill="#2e2a52"/>
  <text x="744" y="245" font-size="11" font-weight="400" fill="#ccc8f0" font-family="system-ui,sans-serif">level</text>
  <!-- FIX: updated_at -->
  <rect x="721" y="252" width="198" height="22" fill="#1b1735"/>
  <circle cx="733" cy="263" r="2" fill="#2e2a52"/>
  <text x="744" y="267" font-size="11" font-weight="400" fill="#ccc8f0" font-family="system-ui,sans-serif">updated_at</text>

  <!-- ═══════════════════════════════════════════════════
       TABLA: matches  (10 columnas → height 266)
  ════════════════════════════════════════════════════ -->
  <rect x="721" y="324" width="200" height="266" rx="10" fill="#000" opacity="0.35"/>
  <rect x="720" y="320" width="200" height="266" rx="10" fill="#15122b"/>
  <rect x="720" y="320" width="200" height="36" rx="10" fill="#1a1640"/>
  <rect x="720" y="340" width="200" height="16" fill="#1a1640"/>
  <rect x="720" y="320" width="4" height="36" rx="2" fill="#FA8C6A"/>
  <text x="734" y="343" font-size="12" font-weight="700" fill="#e0ddff" font-family="system-ui,sans-serif">matches</text>
  <line x1="720" y1="356" x2="920" y2="356" stroke="#2e2a52" stroke-width="0.5"/>
  <rect x="720" y="320" width="200" height="266" rx="10" fill="none" stroke="#2e2a52" stroke-width="0.8"/>
  <!-- id -->
  <rect x="721" y="356" width="198" height="22" fill="#1b1735"/>
  <circle cx="733" cy="367" r="5" fill="#F59E42"/>
  <text x="733" y="371" font-size="6" font-weight="800" fill="#1a0a00" text-anchor="middle" font-family="system-ui,sans-serif">PK</text>
  <text x="744" y="371" font-size="11" font-weight="600" fill="#F59E42" font-family="system-ui,sans-serif">id</text>
  <!-- player1_id -->
  <rect x="721" y="378" width="198" height="22" fill="#15122b"/>
  <circle cx="733" cy="389" r="5" fill="#7C6AFA" opacity="0.75"/>
  <text x="733" y="393" font-size="6" font-weight="800" fill="white" text-anchor="middle" font-family="system-ui,sans-serif">FK</text>
  <text x="744" y="393" font-size="11" font-weight="500" fill="#7C6AFA" font-family="system-ui,sans-serif">player1_id</text>
  <!-- player2_id -->
  <rect x="721" y="400" width="198" height="22" fill="#1b1735"/>
  <circle cx="733" cy="411" r="5" fill="#7C6AFA" opacity="0.75"/>
  <text x="733" y="415" font-size="6" font-weight="800" fill="white" text-anchor="middle" font-family="system-ui,sans-serif">FK</text>
  <text x="744" y="415" font-size="11" font-weight="500" fill="#7C6AFA" font-family="system-ui,sans-serif">player2_id</text>
  <!-- winner_id -->
  <rect x="721" y="422" width="198" height="22" fill="#15122b"/>
  <circle cx="733" cy="433" r="5" fill="#7C6AFA" opacity="0.75"/>
  <text x="733" y="437" font-size="6" font-weight="800" fill="white" text-anchor="middle" font-family="system-ui,sans-serif">FK</text>
  <text x="744" y="437" font-size="11" font-weight="500" fill="#7C6AFA" font-family="system-ui,sans-serif">winner_id</text>
  <!-- score1 -->
  <rect x="721" y="444" width="198" height="22" fill="#1b1735"/>
  <circle cx="733" cy="455" r="2" fill="#2e2a52"/>
  <text x="744" y="459" font-size="11" font-weight="400" fill="#ccc8f0" font-family="system-ui,sans-serif">score1</text>
  <!-- score2 -->
  <rect x="721" y="466" width="198" height="22" fill="#15122b"/>
  <circle cx="733" cy="477" r="2" fill="#2e2a52"/>
  <text x="744" y="481" font-size="11" font-weight="400" fill="#ccc8f0" font-family="system-ui,sans-serif">score2</text>
  <!-- game_type -->
  <rect x="721" y="488" width="198" height="22" fill="#1b1735"/>
  <circle cx="733" cy="499" r="2" fill="#2e2a52"/>
  <text x="744" y="503" font-size="11" font-weight="400" fill="#ccc8f0" font-family="system-ui,sans-serif">game_type</text>
  <!-- played_at -->
  <rect x="721" y="510" width="198" height="22" fill="#15122b"/>
  <circle cx="733" cy="521" r="2" fill="#2e2a52"/>
  <text x="744" y="525" font-size="11" font-weight="400" fill="#ccc8f0" font-family="system-ui,sans-serif">played_at</text>
  <!-- ended_at -->
  <rect x="721" y="532" width="198" height="22" fill="#1b1735"/>
  <circle cx="733" cy="543" r="2" fill="#2e2a52"/>
  <text x="744" y="547" font-size="11" font-weight="400" fill="#ccc8f0" font-family="system-ui,sans-serif">ended_at</text>
  <!-- duration_s -->
  <rect x="721" y="554" width="198" height="22" fill="#15122b"/>
  <circle cx="733" cy="565" r="2" fill="#2e2a52"/>
  <text x="744" y="569" font-size="11" font-weight="400" fill="#ccc8f0" font-family="system-ui,sans-serif">duration_s</text>

  <!-- ═══════════════════════════════════════════════════
       TABLA: spectators  (7 columnas → height 200)
  ════════════════════════════════════════════════════ -->
  <rect x="381" y="644" width="200" height="200" rx="10" fill="#000" opacity="0.35"/>
  <rect x="380" y="640" width="200" height="200" rx="10" fill="#15122b"/>
  <rect x="380" y="640" width="200" height="36" rx="10" fill="#1a1640"/>
  <rect x="380" y="660" width="200" height="16" fill="#1a1640"/>
  <rect x="380" y="640" width="4" height="36" rx="2" fill="#D46AFA"/>
  <text x="394" y="663" font-size="12" font-weight="700" fill="#e0ddff" font-family="system-ui,sans-serif">spectators</text>
  <line x1="380" y1="676" x2="580" y2="676" stroke="#2e2a52" stroke-width="0.5"/>
  <rect x="380" y="640" width="200" height="200" rx="10" fill="none" stroke="#2e2a52" stroke-width="0.8"/>
  <!-- id -->
  <rect x="381" y="676" width="198" height="22" fill="#1b1735"/>
  <circle cx="393" cy="687" r="5" fill="#F59E42"/>
  <text x="393" y="691" font-size="6" font-weight="800" fill="#1a0a00" text-anchor="middle" font-family="system-ui,sans-serif">PK</text>
  <text x="404" y="691" font-size="11" font-weight="600" fill="#F59E42" font-family="system-ui,sans-serif">id</text>
  <!-- user_id -->
  <rect x="381" y="698" width="198" height="22" fill="#15122b"/>
  <circle cx="393" cy="709" r="5" fill="#7C6AFA" opacity="0.75"/>
  <text x="393" y="713" font-size="6" font-weight="800" fill="white" text-anchor="middle" font-family="system-ui,sans-serif">FK</text>
  <text x="404" y="713" font-size="11" font-weight="500" fill="#7C6AFA" font-family="system-ui,sans-serif">user_id</text>
  <!-- session_id -->
  <rect x="381" y="720" width="198" height="22" fill="#1b1735"/>
  <circle cx="393" cy="731" r="2" fill="#2e2a52"/>
  <text x="404" y="735" font-size="11" font-weight="400" fill="#ccc8f0" font-family="system-ui,sans-serif">session_id</text>
  <!-- tournament_id -->
  <rect x="381" y="742" width="198" height="22" fill="#15122b"/>
  <circle cx="393" cy="753" r="5" fill="#7C6AFA" opacity="0.75"/>
  <text x="393" y="757" font-size="6" font-weight="800" fill="white" text-anchor="middle" font-family="system-ui,sans-serif">FK</text>
  <text x="404" y="757" font-size="11" font-weight="500" fill="#7C6AFA" font-family="system-ui,sans-serif">tournament_id</text>
  <!-- mode -->
  <rect x="381" y="764" width="198" height="22" fill="#1b1735"/>
  <circle cx="393" cy="775" r="2" fill="#2e2a52"/>
  <text x="404" y="779" font-size="11" font-weight="400" fill="#ccc8f0" font-family="system-ui,sans-serif">mode</text>
  <!-- joined_at -->
  <rect x="381" y="786" width="198" height="22" fill="#15122b"/>
  <circle cx="393" cy="797" r="2" fill="#2e2a52"/>
  <text x="404" y="801" font-size="11" font-weight="400" fill="#ccc8f0" font-family="system-ui,sans-serif">joined_at</text>
  <!-- left_at -->
  <rect x="381" y="808" width="198" height="22" fill="#1b1735"/>
  <circle cx="393" cy="819" r="2" fill="#2e2a52"/>
  <text x="404" y="823" font-size="11" font-weight="400" fill="#ccc8f0" font-family="system-ui,sans-serif">left_at</text>

  <!-- ═══════════════════════════════════════════════════
       TABLA: tournaments  (5 columnas → height 156)
  ════════════════════════════════════════════════════ -->
  <rect x="721" y="644" width="200" height="156" rx="10" fill="#000" opacity="0.35"/>
  <rect x="720" y="640" width="200" height="156" rx="10" fill="#15122b"/>
  <rect x="720" y="640" width="200" height="36" rx="10" fill="#1a1640"/>
  <rect x="720" y="660" width="200" height="16" fill="#1a1640"/>
  <rect x="720" y="640" width="4" height="36" rx="2" fill="#6AFAD4"/>
  <text x="734" y="663" font-size="12" font-weight="700" fill="#e0ddff" font-family="system-ui,sans-serif">tournaments</text>
  <line x1="720" y1="676" x2="920" y2="676" stroke="#2e2a52" stroke-width="0.5"/>
  <rect x="720" y="640" width="200" height="156" rx="10" fill="none" stroke="#2e2a52" stroke-width="0.8"/>
  <!-- id -->
  <rect x="721" y="676" width="198" height="22" fill="#1b1735"/>
  <circle cx="733" cy="687" r="5" fill="#F59E42"/>
  <text x="733" y="691" font-size="6" font-weight="800" fill="#1a0a00" text-anchor="middle" font-family="system-ui,sans-serif">PK</text>
  <text x="744" y="691" font-size="11" font-weight="600" fill="#F59E42" font-family="system-ui,sans-serif">id</text>
  <!-- name -->
  <rect x="721" y="698" width="198" height="22" fill="#15122b"/>
  <circle cx="733" cy="709" r="2" fill="#2e2a52"/>
  <text x="744" y="713" font-size="11" font-weight="400" fill="#ccc8f0" font-family="system-ui,sans-serif">name</text>
  <!-- status -->
  <rect x="721" y="720" width="198" height="22" fill="#1b1735"/>
  <circle cx="733" cy="731" r="2" fill="#2e2a52"/>
  <text x="744" y="735" font-size="11" font-weight="400" fill="#ccc8f0" font-family="system-ui,sans-serif">status</text>
  <!-- created_by -->
  <rect x="721" y="742" width="198" height="22" fill="#15122b"/>
  <circle cx="733" cy="753" r="5" fill="#7C6AFA" opacity="0.75"/>
  <text x="733" y="757" font-size="6" font-weight="800" fill="white" text-anchor="middle" font-family="system-ui,sans-serif">FK</text>
  <text x="744" y="757" font-size="11" font-weight="500" fill="#7C6AFA" font-family="system-ui,sans-serif">created_by</text>
  <!-- created_at -->
  <rect x="721" y="764" width="198" height="22" fill="#1b1735"/>
  <circle cx="733" cy="775" r="2" fill="#2e2a52"/>
  <text x="744" y="779" font-size="11" font-weight="400" fill="#ccc8f0" font-family="system-ui,sans-serif">created_at</text>

  <!-- ═══════════════════════════════════════════════════
       TABLA: tournament_players  (3 columnas → height 112)
       FIX: tournament_id y user_id son PK+FK
  ════════════════════════════════════════════════════ -->
  <rect x="721" y="844" width="200" height="112" rx="10" fill="#000" opacity="0.35"/>
  <rect x="720" y="840" width="200" height="112" rx="10" fill="#15122b"/>
  <rect x="720" y="840" width="200" height="36" rx="10" fill="#1a1640"/>
  <rect x="720" y="860" width="200" height="16" fill="#1a1640"/>
  <rect x="720" y="840" width="4" height="36" rx="2" fill="#6AFAD4"/>
  <text x="734" y="863" font-size="12" font-weight="700" fill="#e0ddff" font-family="system-ui,sans-serif">tournament_players</text>
  <line x1="720" y1="876" x2="920" y2="876" stroke="#2e2a52" stroke-width="0.5"/>
  <rect x="720" y="840" width="200" height="112" rx="10" fill="none" stroke="#2e2a52" stroke-width="0.8"/>
  <!-- tournament_id PK+FK -->
  <rect x="721" y="876" width="198" height="22" fill="#1b1735"/>
  <circle cx="733" cy="887" r="5" fill="#F59E42"/>
  <text x="733" y="891" font-size="6" font-weight="800" fill="#1a0a00" text-anchor="middle" font-family="system-ui,sans-serif">PK</text>
  <circle cx="748" cy="887" r="5" fill="#7C6AFA" opacity="0.75"/>
  <text x="748" y="891" font-size="6" font-weight="800" fill="white" text-anchor="middle" font-family="system-ui,sans-serif">FK</text>
  <text x="760" y="891" font-size="11" font-weight="600" fill="#ccc8f0" font-family="system-ui,sans-serif">tournament_id</text>
  <!-- user_id PK+FK -->
  <rect x="721" y="898" width="198" height="22" fill="#15122b"/>
  <circle cx="733" cy="909" r="5" fill="#F59E42"/>
  <text x="733" y="913" font-size="6" font-weight="800" fill="#1a0a00" text-anchor="middle" font-family="system-ui,sans-serif">PK</text>
  <circle cx="748" cy="909" r="5" fill="#7C6AFA" opacity="0.75"/>
  <text x="748" y="913" font-size="6" font-weight="800" fill="white" text-anchor="middle" font-family="system-ui,sans-serif">FK</text>
  <text x="760" y="913" font-size="11" font-weight="600" fill="#ccc8f0" font-family="system-ui,sans-serif">user_id</text>
  <!-- eliminated -->
  <rect x="721" y="920" width="198" height="22" fill="#1b1735"/>
  <circle cx="733" cy="931" r="2" fill="#2e2a52"/>
  <text x="744" y="935" font-size="11" font-weight="400" fill="#ccc8f0" font-family="system-ui,sans-serif">eliminated</text>

  <!-- ═══════════════════════════════════════════════════
       TABLA: tournament_matches  (5 columnas → height 156)
  ════════════════════════════════════════════════════ -->
  <rect x="721" y="994" width="200" height="156" rx="10" fill="#000" opacity="0.35"/>
  <rect x="720" y="990" width="200" height="156" rx="10" fill="#15122b"/>
  <rect x="720" y="990" width="200" height="36" rx="10" fill="#1a1640"/>
  <rect x="720" y="1010" width="200" height="16" fill="#1a1640"/>
  <rect x="720" y="990" width="4" height="36" rx="2" fill="#6AFAD4"/>
  <text x="734" y="1013" font-size="12" font-weight="700" fill="#e0ddff" font-family="system-ui,sans-serif">tournament_matches</text>
  <line x1="720" y1="1026" x2="920" y2="1026" stroke="#2e2a52" stroke-width="0.5"/>
  <rect x="720" y="990" width="200" height="156" rx="10" fill="none" stroke="#2e2a52" stroke-width="0.8"/>
  <!-- id -->
  <rect x="721" y="1026" width="198" height="22" fill="#1b1735"/>
  <circle cx="733" cy="1037" r="5" fill="#F59E42"/>
  <text x="733" y="1041" font-size="6" font-weight="800" fill="#1a0a00" text-anchor="middle" font-family="system-ui,sans-serif">PK</text>
  <text x="744" y="1041" font-size="11" font-weight="600" fill="#F59E42" font-family="system-ui,sans-serif">id</text>
  <!-- tournament_id FK -->
  <rect x="721" y="1048" width="198" height="22" fill="#15122b"/>
  <circle cx="733" cy="1059" r="5" fill="#7C6AFA" opacity="0.75"/>
  <text x="733" y="1063" font-size="6" font-weight="800" fill="white" text-anchor="middle" font-family="system-ui,sans-serif">FK</text>
  <text x="744" y="1063" font-size="11" font-weight="500" fill="#7C6AFA" font-family="system-ui,sans-serif">tournament_id</text>
  <!-- match_id FK -->
  <rect x="721" y="1070" width="198" height="22" fill="#1b1735"/>
  <circle cx="733" cy="1081" r="5" fill="#7C6AFA" opacity="0.75"/>
  <text x="733" y="1085" font-size="6" font-weight="800" fill="white" text-anchor="middle" font-family="system-ui,sans-serif">FK</text>
  <text x="744" y="1085" font-size="11" font-weight="500" fill="#7C6AFA" font-family="system-ui,sans-serif">match_id</text>
  <!-- round -->
  <rect x="721" y="1092" width="198" height="22" fill="#15122b"/>
  <circle cx="733" cy="1103" r="2" fill="#2e2a52"/>
  <text x="744" y="1107" font-size="11" font-weight="400" fill="#ccc8f0" font-family="system-ui,sans-serif">round</text>
  <!-- match_order -->
  <rect x="721" y="1114" width="198" height="22" fill="#1b1735"/>
  <circle cx="733" cy="1125" r="2" fill="#2e2a52"/>
  <text x="744" y="1129" font-size="11" font-weight="400" fill="#ccc8f0" font-family="system-ui,sans-serif">match_order</text>

  <!-- ═══════════════════════════════════════════════════
       LEYENDA
  ════════════════════════════════════════════════════ -->
  <rect x="295" y="1218" width="370" height="22" rx="6" fill="#15122b" stroke="#2e2a52" stroke-width="0.7"/>
  <circle cx="311" cy="1229" r="5" fill="#F59E42"/>
  <text x="311" y="1233" font-size="6" font-weight="800" fill="#1a0a00" text-anchor="middle" font-family="system-ui,sans-serif">PK</text>
  <text x="323" y="1233" font-size="10" fill="#7a75a8" font-family="system-ui,sans-serif">Primary key</text>
  
  <circle cx="397" cy="1229" r="5" fill="#7C6AFA" opacity="0.75"/>
  <text x="397" y="1233" font-size="6" font-weight="800" fill="white" text-anchor="middle" font-family="system-ui,sans-serif">FK</text>
  <text x="409" y="1233" font-size="10" fill="#7a75a8" font-family="system-ui,sans-serif">Foreign key</text>

  <circle cx="483" cy="1229" r="5" fill="#F59E42"/>
  <text x="483" y="1233" font-size="6" font-weight="800" fill="#1a0a00" text-anchor="middle" font-family="system-ui,sans-serif">PK</text>
  <circle cx="498" cy="1229" r="5" fill="#7C6AFA" opacity="0.75"/>
  <text x="498" y="1233" font-size="6" font-weight="800" fill="white" text-anchor="middle" font-family="system-ui,sans-serif">FK</text>
  <text x="510" y="1233" font-size="10" fill="#7a75a8" font-family="system-ui,sans-serif">PK compuesta + FK</text>
  
  <line x1="600" y1="1229" x2="626" y2="1229" stroke="#7C6AFA" stroke-width="1.5" stroke-dasharray="4 2" opacity="0.7"/>
  <circle cx="600" cy="1229" r="2.5" fill="#7C6AFA" opacity="0.7"/>
  <text x="632" y="1233" font-size="10" fill="#7a75a8" font-family="system-ui,sans-serif">Relación FK</text>
</svg>