<svg xmlns="http://www.w3.org/2000/svg" width="960" height="1152" viewBox="0 0 960 1152">
  <!-- Fondo y patrón de puntos -->
  <rect width="960" height="1152" fill="#0d0b1e"/>
  <defs>
    <pattern id="g" x="0" y="0" width="28" height="28" patternUnits="userSpaceOnUse">
      <circle cx="0" cy="0" r="1" fill="#1a1733"/>
    </pattern>
  </defs>
  <rect width="960" height="1152" fill="url(#g)"/>
  
  <!-- Título -->
  <text x="480" y="22" font-size="11" font-weight="600" fill="#4a4570" text-anchor="middle" font-family="system-ui,sans-serif">Transcendence — ERD</text>

  <!-- CONEXIONES (Rutas) -->
  <g stroke="#7C6AFA" stroke-width="1.3" stroke-dasharray="5 3" fill="none" opacity="0.45">
    <!-- Del costado izquierdo hacia users -->
    <path d="M240,129 C300,129 300,357 380,357"/>
    <path d="M240,279 C300,279 300,357 380,357"/>
    <path d="M240,301 C300,301 300,357 380,357"/>
    <path d="M240,489 C300,489 300,357 380,357"/>
    <path d="M240,511 C300,511 300,357 380,357"/>
    <path d="M240,709 C300,709 300,357 380,357"/>
    <path d="M240,1077 C300,1077 300,357 380,357"/>
    
    <!-- user_achievements.achievement_id -> achievements.id -->
    <path d="M40,1099 L20,1099 L20,907 L40,907"/>
    
    <!-- Del costado derecho hacia users -->
    <path d="M720,87 C660,87 660,357 580,357"/>
    <path d="M720,379 C660,379 660,357 580,357"/>
    <path d="M720,401 C660,401 660,357 580,357"/>
    <path d="M720,423 C660,423 660,357 580,357"/>
    <path d="M720,753 C660,753 660,357 580,357"/>
    <path d="M720,909 C660,909 660,357 580,357"/>
    
    <!-- spectators.user_id -> users.id -->
    <path d="M380,709 L360,709 L360,357 L380,357"/>
    
    <!-- spectators.tournament_id -> tournaments.id -->
    <path d="M580,753 C650,753 650,687 720,687"/>
    
    <!-- tournament_players.tournament_id -> tournaments.id -->
    <path d="M720,887 L740,887 L740,687 L720,687"/>
    
    <!-- tournament_matches.tournament_id -> tournaments.id -->
    <path d="M720,1059 L740,1059 L740,687 L720,687"/>
    
    <!-- tournament_matches.match_id -> matches.id -->
    <path d="M720,1081 C700,1081 700,357 720,357"/>
  </g>

  <!-- TABLA: users -->
  <rect x="381" y="314" width="200" height="266" rx="10" fill="#000" opacity="0.35"/>
  <rect x="380" y="310" width="200" height="266" rx="10" fill="#15122b"/>
  <rect x="380" y="310" width="200" height="36" rx="10" fill="#1a1640"/>
  <rect x="380" y="330" width="200" height="16" fill="#1a1640"/>
  <rect x="380" y="310" width="4" height="36" rx="2" fill="#7C6AFA"/>
  <text x="394" y="333" font-size="12" font-weight="700" fill="#e0ddff" font-family="system-ui,sans-serif">users</text>
  <line x1="380" y1="346" x2="580" y2="346" stroke="#2e2a52" stroke-width="0.5"/>
  <rect x="380" y="310" width="200" height="266" rx="10" fill="none" stroke="#2e2a52" stroke-width="0.8"/>

  <rect x="381" y="346" width="198" height="22" fill="#1b1735"/>
  <circle cx="393" cy="357" r="5" fill="#F59E42"/>
  <text x="393" y="361" font-size="6" font-weight="800" fill="#1a0a00" text-anchor="middle" font-family="system-ui,sans-serif">PK</text>
  <text x="404" y="361" font-size="11" font-weight="600" fill="#F59E42" font-family="system-ui,sans-serif">id</text>

  <rect x="381" y="368" width="198" height="22" fill="#15122b"/>
  <circle cx="393" cy="379" r="2" fill="#2e2a52"/>
  <text x="404" y="383" font-size="11" font-weight="400" fill="#ccc8f0" font-family="system-ui,sans-serif">username</text>

  <rect x="381" y="390" width="198" height="22" fill="#1b1735"/>
  <circle cx="393" cy="401" r="2" fill="#2e2a52"/>
  <text x="404" y="405" font-size="11" font-weight="400" fill="#ccc8f0" font-family="system-ui,sans-serif">email</text>

  <rect x="381" y="412" width="198" height="22" fill="#15122b"/>
  <circle cx="393" cy="423" r="2" fill="#2e2a52"/>
  <text x="404" y="427" font-size="11" font-weight="400" fill="#ccc8f0" font-family="system-ui,sans-serif">password_hash</text>

  <rect x="381" y="434" width="198" height="22" fill="#1b1735"/>
  <circle cx="393" cy="445" r="2" fill="#2e2a52"/>
  <text x="404" y="449" font-size="11" font-weight="400" fill="#ccc8f0" font-family="system-ui,sans-serif">avatar_url</text>

  <rect x="381" y="456" width="198" height="22" fill="#15122b"/>
  <circle cx="393" cy="467" r="2" fill="#2e2a52"/>
  <text x="404" y="471" font-size="11" font-weight="400" fill="#ccc8f0" font-family="system-ui,sans-serif">is_online</text>

  <rect x="381" y="478" width="198" height="22" fill="#1b1735"/>
  <circle cx="393" cy="489" r="2" fill="#2e2a52"/>
  <text x="404" y="493" font-size="11" font-weight="400" fill="#ccc8f0" font-family="system-ui,sans-serif">role</text>

  <rect x="381" y="500" width="198" height="22" fill="#15122b"/>
  <circle cx="393" cy="511" r="2" fill="#2e2a52"/>
  <text x="404" y="515" font-size="11" font-weight="400" fill="#ccc8f0" font-family="system-ui,sans-serif">totp_secret</text>

  <rect x="381" y="522" width="198" height="22" fill="#1b1735"/>
  <circle cx="393" cy="533" r="2" fill="#2e2a52"/>
  <text x="404" y="537" font-size="11" font-weight="400" fill="#ccc8f0" font-family="system-ui,sans-serif">totp_enabled</text>

  <rect x="381" y="544" width="198" height="22" fill="#15122b"/>
  <circle cx="393" cy="555" r="2" fill="#2e2a52"/>
  <text x="404" y="559" font-size="11" font-weight="400" fill="#ccc8f0" font-family="system-ui,sans-serif">created_at</text>

  <!-- TABLA: sessions -->
  <rect x="41" y="64" width="200" height="112" rx="10" fill="#000" opacity="0.35"/>
  <rect x="40" y="60" width="200" height="112" rx="10" fill="#15122b"/>
  <rect x="40" y="60" width="200" height="36" rx="10" fill="#1a1640"/>
  <rect x="40" y="80" width="200" height="16" fill="#1a1640"/>
  <rect x="40" y="60" width="4" height="36" rx="2" fill="#7C6AFA"/>
  <text x="54" y="83" font-size="12" font-weight="700" fill="#e0ddff" font-family="system-ui,sans-serif">sessions</text>
  <line x1="40" y1="96" x2="240" y2="96" stroke="#2e2a52" stroke-width="0.5"/>
  <rect x="40" y="60" width="200" height="112" rx="10" fill="none" stroke="#2e2a52" stroke-width="0.8"/>

  <rect x="41" y="96" width="198" height="22" fill="#1b1735"/>
  <circle cx="53" cy="107" r="5" fill="#F59E42"/>
  <text x="53" y="111" font-size="6" font-weight="800" fill="#1a0a00" text-anchor="middle" font-family="system-ui,sans-serif">PK</text>
  <text x="64" y="111" font-size="11" font-weight="600" fill="#F59E42" font-family="system-ui,sans-serif">token</text>

  <rect x="41" y="118" width="198" height="22" fill="#15122b"/>
  <circle cx="53" cy="129" r="5" fill="#7C6AFA" opacity="0.75"/>
  <text x="53" y="133" font-size="6" font-weight="800" fill="white" text-anchor="middle" font-family="system-ui,sans-serif">FK</text>
  <text x="64" y="133" font-size="11" font-weight="500" fill="#7C6AFA" font-family="system-ui,sans-serif">user_id</text>

  <rect x="41" y="140" width="198" height="22" fill="#1b1735"/>
  <circle cx="53" cy="151" r="2" fill="#2e2a52"/>
  <text x="64" y="155" font-size="11" font-weight="400" fill="#ccc8f0" font-family="system-ui,sans-serif">expires_at</text>

  <!-- TABLA: friendships -->
  <rect x="41" y="214" width="200" height="156" rx="10" fill="#000" opacity="0.35"/>
  <rect x="40" y="210" width="200" height="156" rx="10" fill="#15122b"/>
  <rect x="40" y="210" width="200" height="36" rx="10" fill="#1a1640"/>
  <rect x="40" y="230" width="200" height="16" fill="#1a1640"/>
  <rect x="40" y="210" width="4" height="36" rx="2" fill="#6AD4FA"/>
  <text x="54" y="233" font-size="12" font-weight="700" fill="#e0ddff" font-family="system-ui,sans-serif">friendships</text>
  <line x1="40" y1="246" x2="240" y2="246" stroke="#2e2a52" stroke-width="0.5"/>
  <rect x="40" y="210" width="200" height="156" rx="10" fill="none" stroke="#2e2a52" stroke-width="0.8"/>

  <rect x="41" y="246" width="198" height="22" fill="#1b1735"/>
  <circle cx="53" cy="257" r="5" fill="#F59E42"/>
  <text x="53" y="261" font-size="6" font-weight="800" fill="#1a0a00" text-anchor="middle" font-family="system-ui,sans-serif">PK</text>
  <text x="64" y="261" font-size="11" font-weight="600" fill="#F59E42" font-family="system-ui,sans-serif">id</text>

  <rect x="41" y="268" width="198" height="22" fill="#15122b"/>
  <circle cx="53" cy="279" r="5" fill="#7C6AFA" opacity="0.75"/>
  <text x="53" y="283" font-size="6" font-weight="800" fill="white" text-anchor="middle" font-family="system-ui,sans-serif">FK</text>
  <text x="64" y="283" font-size="11" font-weight="500" fill="#7C6AFA" font-family="system-ui,sans-serif">user_id</text>

  <rect x="41" y="290" width="198" height="22" fill="#1b1735"/>
  <circle cx="53" cy="301" r="5" fill="#7C6AFA" opacity="0.75"/>
  <text x="53" y="305" font-size="6" font-weight="800" fill="white" text-anchor="middle" font-family="system-ui,sans-serif">FK</text>
  <text x="64" y="305" font-size="11" font-weight="500" fill="#7C6AFA" font-family="system-ui,sans-serif">friend_id</text>

  <rect x="41" y="312" width="198" height="22" fill="#15122b"/>
  <circle cx="53" cy="323" r="2" fill="#2e2a52"/>
  <text x="64" y="327" font-size="11" font-weight="400" fill="#ccc8f0" font-family="system-ui,sans-serif">status</text>

  <rect x="41" y="334" width="198" height="22" fill="#1b1735"/>
  <circle cx="53" cy="345" r="2" fill="#2e2a52"/>
  <text x="64" y="349" font-size="11" font-weight="400" fill="#ccc8f0" font-family="system-ui,sans-serif">updated_at</text>

  <!-- TABLA: messages -->
  <rect x="41" y="424" width="200" height="178" rx="10" fill="#000" opacity="0.35"/>
  <rect x="40" y="420" width="200" height="178" rx="10" fill="#15122b"/>
  <rect x="40" y="420" width="200" height="36" rx="10" fill="#1a1640"/>
  <rect x="40" y="440" width="200" height="16" fill="#1a1640"/>
  <rect x="40" y="420" width="4" height="36" rx="2" fill="#6AD4FA"/>
  <text x="54" y="443" font-size="12" font-weight="700" fill="#e0ddff" font-family="system-ui,sans-serif">messages</text>
  <line x1="40" y1="456" x2="240" y2="456" stroke="#2e2a52" stroke-width="0.5"/>
  <rect x="40" y="420" width="200" height="178" rx="10" fill="none" stroke="#2e2a52" stroke-width="0.8"/>

  <rect x="41" y="456" width="198" height="22" fill="#1b1735"/>
  <circle cx="53" cy="467" r="5" fill="#F59E42"/>
  <text x="53" y="471" font-size="6" font-weight="800" fill="#1a0a00" text-anchor="middle" font-family="system-ui,sans-serif">PK</text>
  <text x="64" y="471" font-size="11" font-weight="600" fill="#F59E42" font-family="system-ui,sans-serif">id</text>

  <rect x="41" y="478" width="198" height="22" fill="#15122b"/>
  <circle cx="53" cy="489" r="5" fill="#7C6AFA" opacity="0.75"/>
  <text x="53" y="493" font-size="6" font-weight="800" fill="white" text-anchor="middle" font-family="system-ui,sans-serif">FK</text>
  <text x="64" y="493" font-size="11" font-weight="500" fill="#7C6AFA" font-family="system-ui,sans-serif">sender_id</text>

  <rect x="41" y="500" width="198" height="22" fill="#1b1735"/>
  <circle cx="53" cy="511" r="5" fill="#7C6AFA" opacity="0.75"/>
  <text x="53" y="515" font-size="6" font-weight="800" fill="white" text-anchor="middle" font-family="system-ui,sans-serif">FK</text>
  <text x="64" y="515" font-size="11" font-weight="500" fill="#7C6AFA" font-family="system-ui,sans-serif">receiver_id</text>

  <rect x="41" y="522" width="198" height="22" fill="#15122b"/>
  <circle cx="53" cy="533" r="2" fill="#2e2a52"/>
  <text x="64" y="537" font-size="11" font-weight="400" fill="#ccc8f0" font-family="system-ui,sans-serif">content</text>

  <rect x="41" y="544" width="198" height="22" fill="#1b1735"/>
  <circle cx="53" cy="555" r="2" fill="#2e2a52"/>
  <text x="64" y="559" font-size="11" font-weight="400" fill="#ccc8f0" font-family="system-ui,sans-serif">is_read</text>

  <rect x="41" y="566" width="198" height="22" fill="#15122b"/>
  <circle cx="53" cy="577" r="2" fill="#2e2a52"/>
  <text x="64" y="581" font-size="11" font-weight="400" fill="#ccc8f0" font-family="system-ui,sans-serif">sent_at</text>

  <!-- TABLA: notifications -->
  <rect x="41" y="644" width="200" height="178" rx="10" fill="#000" opacity="0.35"/>
  <rect x="40" y="640" width="200" height="178" rx="10" fill="#15122b"/>
  <rect x="40" y="640" width="200" height="36" rx="10" fill="#1a1640"/>
  <rect x="40" y="660" width="200" height="16" fill="#1a1640"/>
  <rect x="40" y="640" width="4" height="36" rx="2" fill="#6AD4FA"/>
  <text x="54" y="663" font-size="12" font-weight="700" fill="#e0ddff" font-family="system-ui,sans-serif">notifications</text>
  <line x1="40" y1="676" x2="240" y2="676" stroke="#2e2a52" stroke-width="0.5"/>
  <rect x="40" y="640" width="200" height="178" rx="10" fill="none" stroke="#2e2a52" stroke-width="0.8"/>

  <rect x="41" y="676" width="198" height="22" fill="#1b1735"/>
  <circle cx="53" cy="687" r="5" fill="#F59E42"/>
  <text x="53" y="691" font-size="6" font-weight="800" fill="#1a0a00" text-anchor="middle" font-family="system-ui,sans-serif">PK</text>
  <text x="64" y="691" font-size="11" font-weight="600" fill="#F59E42" font-family="system-ui,sans-serif">id</text>

  <rect x="41" y="698" width="198" height="22" fill="#15122b"/>
  <circle cx="53" cy="709" r="5" fill="#7C6AFA" opacity="0.75"/>
  <text x="53" y="713" font-size="6" font-weight="800" fill="white" text-anchor="middle" font-family="system-ui,sans-serif">FK</text>
  <text x="64" y="713" font-size="11" font-weight="500" fill="#7C6AFA" font-family="system-ui,sans-serif">user_id</text>

  <rect x="41" y="720" width="198" height="22" fill="#1b1735"/>
  <circle cx="53" cy="731" r="2" fill="#2e2a52"/>
  <text x="64" y="735" font-size="11" font-weight="400" fill="#ccc8f0" font-family="system-ui,sans-serif">type</text>

  <rect x="41" y="742" width="198" height="22" fill="#15122b"/>
  <circle cx="53" cy="753" r="2" fill="#2e2a52"/>
  <text x="64" y="757" font-size="11" font-weight="400" fill="#ccc8f0" font-family="system-ui,sans-serif">payload</text>

  <rect x="41" y="764" width="198" height="22" fill="#1b1735"/>
  <circle cx="53" cy="775" r="2" fill="#2e2a52"/>
  <text x="64" y="779" font-size="11" font-weight="400" fill="#ccc8f0" font-family="system-ui,sans-serif">is_read</text>

  <rect x="41" y="786" width="198" height="22" fill="#15122b"/>
  <circle cx="53" cy="797" r="2" fill="#2e2a52"/>
  <text x="64" y="801" font-size="11" font-weight="400" fill="#ccc8f0" font-family="system-ui,sans-serif">created_at</text>

  <!-- TABLA: achievements -->
  <rect x="41" y="864" width="200" height="134" rx="10" fill="#000" opacity="0.35"/>
  <rect x="40" y="860" width="200" height="134" rx="10" fill="#15122b"/>
  <rect x="40" y="860" width="200" height="36" rx="10" fill="#1a1640"/>
  <rect x="40" y="880" width="200" height="16" fill="#1a1640"/>
  <rect x="40" y="860" width="4" height="36" rx="2" fill="#FAD46A"/>
  <text x="54" y="883" font-size="12" font-weight="700" fill="#e0ddff" font-family="system-ui,sans-serif">achievements</text>
  <line x1="40" y1="896" x2="240" y2="896" stroke="#2e2a52" stroke-width="0.5"/>
  <rect x="40" y="860" width="200" height="134" rx="10" fill="none" stroke="#2e2a52" stroke-width="0.8"/>

  <rect x="41" y="896" width="198" height="22" fill="#1b1735"/>
  <circle cx="53" cy="907" r="5" fill="#F59E42"/>
  <text x="53" y="911" font-size="6" font-weight="800" fill="#1a0a00" text-anchor="middle" font-family="system-ui,sans-serif">PK</text>
  <text x="64" y="911" font-size="11" font-weight="600" fill="#F59E42" font-family="system-ui,sans-serif">id</text>

  <rect x="41" y="918" width="198" height="22" fill="#15122b"/>
  <circle cx="53" cy="929" r="2" fill="#2e2a52"/>
  <text x="64" y="933" font-size="11" font-weight="400" fill="#ccc8f0" font-family="system-ui,sans-serif">key</text>

  <rect x="41" y="940" width="198" height="22" fill="#1b1735"/>
  <circle cx="53" cy="951" r="2" fill="#2e2a52"/>
  <text x="64" y="955" font-size="11" font-weight="400" fill="#ccc8f0" font-family="system-ui,sans-serif">name</text>

  <rect x="41" y="962" width="198" height="22" fill="#15122b"/>
  <circle cx="53" cy="973" r="2" fill="#2e2a52"/>
  <text x="64" y="977" font-size="11" font-weight="400" fill="#ccc8f0" font-family="system-ui,sans-serif">description</text>

  <!-- TABLA: user_achievements -->
  <rect x="41" y="1034" width="200" height="112" rx="10" fill="#000" opacity="0.35"/>
  <rect x="40" y="1030" width="200" height="112" rx="10" fill="#15122b"/>
  <rect x="40" y="1030" width="200" height="36" rx="10" fill="#1a1640"/>
  <rect x="40" y="1050" width="200" height="16" fill="#1a1640"/>
  <rect x="40" y="1030" width="4" height="36" rx="2" fill="#FAD46A"/>
  <text x="54" y="1053" font-size="12" font-weight="700" fill="#e0ddff" font-family="system-ui,sans-serif">user_achievements</text>
  <line x1="40" y1="1066" x2="240" y2="1066" stroke="#2e2a52" stroke-width="0.5"/>
  <rect x="40" y="1030" width="200" height="112" rx="10" fill="none" stroke="#2e2a52" stroke-width="0.8"/>

  <rect x="41" y="1066" width="198" height="22" fill="#1b1735"/>
  <circle cx="53" cy="1077" r="5" fill="#F59E42"/>
  <text x="53" y="1081" font-size="6" font-weight="800" fill="#1a0a00" text-anchor="middle" font-family="system-ui,sans-serif">PK</text>
  <text x="64" y="1081" font-size="11" font-weight="600" fill="#F59E42" font-family="system-ui,sans-serif">user_id</text>

  <rect x="41" y="1088" width="198" height="22" fill="#15122b"/>
  <circle cx="53" cy="1099" r="5" fill="#F59E42"/>
  <text x="53" y="1103" font-size="6" font-weight="800" fill="#1a0a00" text-anchor="middle" font-family="system-ui,sans-serif">PK</text>
  <text x="64" y="1103" font-size="11" font-weight="600" fill="#F59E42" font-family="system-ui,sans-serif">achievement_id</text>

  <rect x="41" y="1110" width="198" height="22" fill="#1b1735"/>
  <circle cx="53" cy="1121" r="2" fill="#2e2a52"/>
  <text x="64" y="1125" font-size="11" font-weight="400" fill="#ccc8f0" font-family="system-ui,sans-serif">earned_at</text>

  <!-- TABLA: user_stats -->
  <rect x="721" y="44" width="200" height="222" rx="10" fill="#000" opacity="0.35"/>
  <rect x="720" y="40" width="200" height="222" rx="10" fill="#15122b"/>
  <rect x="720" y="40" width="200" height="36" rx="10" fill="#1a1640"/>
  <rect x="720" y="60" width="200" height="16" fill="#1a1640"/>
  <rect x="720" y="40" width="4" height="36" rx="2" fill="#FA8C6A"/>
  <text x="734" y="63" font-size="12" font-weight="700" fill="#e0ddff" font-family="system-ui,sans-serif">user_stats</text>
  <line x1="720" y1="76" x2="920" y2="76" stroke="#2e2a52" stroke-width="0.5"/>
  <rect x="720" y="40" width="200" height="222" rx="10" fill="none" stroke="#2e2a52" stroke-width="0.8"/>

  <rect x="721" y="76" width="198" height="22" fill="#1b1735"/>
  <circle cx="733" cy="87" r="5" fill="#F59E42"/>
  <text x="733" y="91" font-size="6" font-weight="800" fill="#1a0a00" text-anchor="middle" font-family="system-ui,sans-serif">PK</text>
  <text x="744" y="91" font-size="11" font-weight="600" fill="#F59E42" font-family="system-ui,sans-serif">user_id</text>

  <rect x="721" y="98" width="198" height="22" fill="#15122b"/>
  <circle cx="733" cy="109" r="2" fill="#2e2a52"/>
  <text x="744" y="113" font-size="11" font-weight="400" fill="#ccc8f0" font-family="system-ui,sans-serif">wins</text>

  <rect x="721" y="120" width="198" height="22" fill="#1b1735"/>
  <circle cx="733" cy="131" r="2" fill="#2e2a52"/>
  <text x="744" y="135" font-size="11" font-weight="400" fill="#ccc8f0" font-family="system-ui,sans-serif">losses</text>

  <rect x="721" y="142" width="198" height="22" fill="#15122b"/>
  <circle cx="733" cy="153" r="2" fill="#2e2a52"/>
  <text x="744" y="157" font-size="11" font-weight="400" fill="#ccc8f0" font-family="system-ui,sans-serif">draws</text>

  <rect x="721" y="164" width="198" height="22" fill="#1b1735"/>
  <circle cx="733" cy="175" r="2" fill="#2e2a52"/>
  <text x="744" y="179" font-size="11" font-weight="400" fill="#ccc8f0" font-family="system-ui,sans-serif">win_streak</text>

  <rect x="721" y="186" width="198" height="22" fill="#15122b"/>
  <circle cx="733" cy="197" r="2" fill="#2e2a52"/>
  <text x="744" y="201" font-size="11" font-weight="400" fill="#ccc8f0" font-family="system-ui,sans-serif">best_streak</text>

  <rect x="721" y="208" width="198" height="22" fill="#1b1735"/>
  <circle cx="733" cy="219" r="2" fill="#2e2a52"/>
  <text x="744" y="223" font-size="11" font-weight="400" fill="#ccc8f0" font-family="system-ui,sans-serif">xp</text>

  <rect x="721" y="230" width="198" height="22" fill="#15122b"/>
  <circle cx="733" cy="241" r="2" fill="#2e2a52"/>
  <text x="744" y="245" font-size="11" font-weight="400" fill="#ccc8f0" font-family="system-ui,sans-serif">level</text>

  <!-- TABLA: matches -->
  <rect x="721" y="314" width="200" height="266" rx="10" fill="#000" opacity="0.35"/>
  <rect x="720" y="310" width="200" height="266" rx="10" fill="#15122b"/>
  <rect x="720" y="310" width="200" height="36" rx="10" fill="#1a1640"/>
  <rect x="720" y="330" width="200" height="16" fill="#1a1640"/>
  <rect x="720" y="310" width="4" height="36" rx="2" fill="#FA8C6A"/>
  <text x="734" y="333" font-size="12" font-weight="700" fill="#e0ddff" font-family="system-ui,sans-serif">matches</text>
  <line x1="720" y1="346" x2="920" y2="346" stroke="#2e2a52" stroke-width="0.5"/>
  <rect x="720" y="310" width="200" height="266" rx="10" fill="none" stroke="#2e2a52" stroke-width="0.8"/>

  <rect x="721" y="346" width="198" height="22" fill="#1b1735"/>
  <circle cx="733" cy="357" r="5" fill="#F59E42"/>
  <text x="733" y="361" font-size="6" font-weight="800" fill="#1a0a00" text-anchor="middle" font-family="system-ui,sans-serif">PK</text>
  <text x="744" y="361" font-size="11" font-weight="600" fill="#F59E42" font-family="system-ui,sans-serif">id</text>

  <rect x="721" y="368" width="198" height="22" fill="#15122b"/>
  <circle cx="733" cy="379" r="5" fill="#7C6AFA" opacity="0.75"/>
  <text x="733" y="383" font-size="6" font-weight="800" fill="white" text-anchor="middle" font-family="system-ui,sans-serif">FK</text>
  <text x="744" y="383" font-size="11" font-weight="500" fill="#7C6AFA" font-family="system-ui,sans-serif">player1_id</text>

  <rect x="721" y="390" width="198" height="22" fill="#1b1735"/>
  <circle cx="733" cy="401" r="5" fill="#7C6AFA" opacity="0.75"/>
  <text x="733" y="405" font-size="6" font-weight="800" fill="white" text-anchor="middle" font-family="system-ui,sans-serif">FK</text>
  <text x="744" y="405" font-size="11" font-weight="500" fill="#7C6AFA" font-family="system-ui,sans-serif">player2_id</text>

  <rect x="721" y="412" width="198" height="22" fill="#15122b"/>
  <circle cx="733" cy="423" r="5" fill="#7C6AFA" opacity="0.75"/>
  <text x="733" y="427" font-size="6" font-weight="800" fill="white" text-anchor="middle" font-family="system-ui,sans-serif">FK</text>
  <text x="744" y="427" font-size="11" font-weight="500" fill="#7C6AFA" font-family="system-ui,sans-serif">winner_id</text>

  <rect x="721" y="434" width="198" height="22" fill="#1b1735"/>
  <circle cx="733" cy="445" r="2" fill="#2e2a52"/>
  <text x="744" y="449" font-size="11" font-weight="400" fill="#ccc8f0" font-family="system-ui,sans-serif">score1</text>

  <rect x="721" y="456" width="198" height="22" fill="#15122b"/>
  <circle cx="733" cy="467" r="2" fill="#2e2a52"/>
  <text x="744" y="471" font-size="11" font-weight="400" fill="#ccc8f0" font-family="system-ui,sans-serif">score2</text>

  <rect x="721" y="478" width="198" height="22" fill="#1b1735"/>
  <circle cx="733" cy="489" r="2" fill="#2e2a52"/>
  <text x="744" y="493" font-size="11" font-weight="400" fill="#ccc8f0" font-family="system-ui,sans-serif">game_type</text>

  <rect x="721" y="500" width="198" height="22" fill="#15122b"/>
  <circle cx="733" cy="511" r="2" fill="#2e2a52"/>
  <text x="744" y="515" font-size="11" font-weight="400" fill="#ccc8f0" font-family="system-ui,sans-serif">played_at</text>

  <rect x="721" y="522" width="198" height="22" fill="#1b1735"/>
  <circle cx="733" cy="533" r="2" fill="#2e2a52"/>
  <text x="744" y="537" font-size="11" font-weight="400" fill="#ccc8f0" font-family="system-ui,sans-serif">ended_at</text>

  <rect x="721" y="544" width="198" height="22" fill="#15122b"/>
  <circle cx="733" cy="555" r="2" fill="#2e2a52"/>
  <text x="744" y="559" font-size="11" font-weight="400" fill="#ccc8f0" font-family="system-ui,sans-serif">duration_s</text>

  <!-- TABLA: tournaments -->
  <rect x="721" y="644" width="200" height="156" rx="10" fill="#000" opacity="0.35"/>
  <rect x="720" y="640" width="200" height="156" rx="10" fill="#15122b"/>
  <rect x="720" y="640" width="200" height="36" rx="10" fill="#1a1640"/>
  <rect x="720" y="660" width="200" height="16" fill="#1a1640"/>
  <rect x="720" y="640" width="4" height="36" rx="2" fill="#6AFAD4"/>
  <text x="734" y="663" font-size="12" font-weight="700" fill="#e0ddff" font-family="system-ui,sans-serif">tournaments</text>
  <line x1="720" y1="676" x2="920" y2="676" stroke="#2e2a52" stroke-width="0.5"/>
  <rect x="720" y="640" width="200" height="156" rx="10" fill="none" stroke="#2e2a52" stroke-width="0.8"/>

  <rect x="721" y="676" width="198" height="22" fill="#1b1735"/>
  <circle cx="733" cy="687" r="5" fill="#F59E42"/>
  <text x="733" y="691" font-size="6" font-weight="800" fill="#1a0a00" text-anchor="middle" font-family="system-ui,sans-serif">PK</text>
  <text x="744" y="691" font-size="11" font-weight="600" fill="#F59E42" font-family="system-ui,sans-serif">id</text>

  <rect x="721" y="698" width="198" height="22" fill="#15122b"/>
  <circle cx="733" cy="709" r="2" fill="#2e2a52"/>
  <text x="744" y="713" font-size="11" font-weight="400" fill="#ccc8f0" font-family="system-ui,sans-serif">name</text>

  <rect x="721" y="720" width="198" height="22" fill="#1b1735"/>
  <circle cx="733" cy="731" r="2" fill="#2e2a52"/>
  <text x="744" y="735" font-size="11" font-weight="400" fill="#ccc8f0" font-family="system-ui,sans-serif">status</text>

  <rect x="721" y="742" width="198" height="22" fill="#15122b"/>
  <circle cx="733" cy="753" r="5" fill="#7C6AFA" opacity="0.75"/>
  <text x="733" y="757" font-size="6" font-weight="800" fill="white" text-anchor="middle" font-family="system-ui,sans-serif">FK</text>
  <text x="744" y="757" font-size="11" font-weight="500" fill="#7C6AFA" font-family="system-ui,sans-serif">created_by</text>

  <rect x="721" y="764" width="198" height="22" fill="#1b1735"/>
  <circle cx="733" cy="775" r="2" fill="#2e2a52"/>
  <text x="744" y="779" font-size="11" font-weight="400" fill="#ccc8f0" font-family="system-ui,sans-serif">created_at</text>

  <!-- TABLA: tournament_players -->
  <rect x="721" y="844" width="200" height="112" rx="10" fill="#000" opacity="0.35"/>
  <rect x="720" y="840" width="200" height="112" rx="10" fill="#15122b"/>
  <rect x="720" y="840" width="200" height="36" rx="10" fill="#1a1640"/>
  <rect x="720" y="860" width="200" height="16" fill="#1a1640"/>
  <rect x="720" y="840" width="4" height="36" rx="2" fill="#6AFAD4"/>
  <text x="734" y="863" font-size="12" font-weight="700" fill="#e0ddff" font-family="system-ui,sans-serif">tournament_players</text>
  <line x1="720" y1="876" x2="920" y2="876" stroke="#2e2a52" stroke-width="0.5"/>
  <rect x="720" y="840" width="200" height="112" rx="10" fill="none" stroke="#2e2a52" stroke-width="0.8"/>

  <rect x="721" y="876" width="198" height="22" fill="#1b1735"/>
  <circle cx="733" cy="887" r="5" fill="#F59E42"/>
  <text x="733" y="891" font-size="6" font-weight="800" fill="#1a0a00" text-anchor="middle" font-family="system-ui,sans-serif">PK</text>
  <text x="744" y="891" font-size="11" font-weight="600" fill="#F59E42" font-family="system-ui,sans-serif">tournament_id</text>

  <rect x="721" y="898" width="198" height="22" fill="#15122b"/>
  <circle cx="733" cy="909" r="5" fill="#F59E42"/>
  <text x="733" y="913" font-size="6" font-weight="800" fill="#1a0a00" text-anchor="middle" font-family="system-ui,sans-serif">PK</text>
  <text x="744" y="913" font-size="11" font-weight="600" fill="#F59E42" font-family="system-ui,sans-serif">user_id</text>

  <rect x="721" y="920" width="198" height="22" fill="#1b1735"/>
  <circle cx="733" cy="931" r="2" fill="#2e2a52"/>
  <text x="744" y="935" font-size="11" font-weight="400" fill="#ccc8f0" font-family="system-ui,sans-serif">eliminated</text>

  <!-- TABLA: tournament_matches -->
  <rect x="721" y="994" width="200" height="156" rx="10" fill="#000" opacity="0.35"/>
  <rect x="720" y="990" width="200" height="156" rx="10" fill="#15122b"/>
  <rect x="720" y="990" width="200" height="36" rx="10" fill="#1a1640"/>
  <rect x="720" y="1010" width="200" height="16" fill="#1a1640"/>
  <rect x="720" y="990" width="4" height="36" rx="2" fill="#6AFAD4"/>
  <text x="734" y="1013" font-size="12" font-weight="700" fill="#e0ddff" font-family="system-ui,sans-serif">tournament_matches</text>
  <line x1="720" y1="1026" x2="920" y2="1026" stroke="#2e2a52" stroke-width="0.5"/>
  <rect x="720" y="990" width="200" height="156" rx="10" fill="none" stroke="#2e2a52" stroke-width="0.8"/>

  <rect x="721" y="1026" width="198" height="22" fill="#1b1735"/>
  <circle cx="733" cy="1037" r="5" fill="#F59E42"/>
  <text x="733" y="1041" font-size="6" font-weight="800" fill="#1a0a00" text-anchor="middle" font-family="system-ui,sans-serif">PK</text>
  <text x="744" y="1041" font-size="11" font-weight="600" fill="#F59E42" font-family="system-ui,sans-serif">id</text>

  <rect x="721" y="1048" width="198" height="22" fill="#15122b"/>
  <circle cx="733" cy="1059" r="5" fill="#7C6AFA" opacity="0.75"/>
  <text x="733" y="1063" font-size="6" font-weight="800" fill="white" text-anchor="middle" font-family="system-ui,sans-serif">FK</text>
  <text x="744" y="1063" font-size="11" font-weight="500" fill="#7C6AFA" font-family="system-ui,sans-serif">tournament_id</text>

  <rect x="721" y="1070" width="198" height="22" fill="#1b1735"/>
  <circle cx="733" cy="1081" r="5" fill="#7C6AFA" opacity="0.75"/>
  <text x="733" y="1085" font-size="6" font-weight="800" fill="white" text-anchor="middle" font-family="system-ui,sans-serif">FK</text>
  <text x="744" y="1085" font-size="11" font-weight="500" fill="#7C6AFA" font-family="system-ui,sans-serif">match_id</text>

  <rect x="721" y="1092" width="198" height="22" fill="#15122b"/>
  <circle cx="733" cy="1103" r="2" fill="#2e2a52"/>
  <text x="744" y="1107" font-size="11" font-weight="400" fill="#ccc8f0" font-family="system-ui,sans-serif">round</text>

  <rect x="721" y="1114" width="198" height="22" fill="#1b1735"/>
  <circle cx="733" cy="1125" r="2" fill="#2e2a52"/>
  <text x="744" y="1129" font-size="11" font-weight="400" fill="#ccc8f0" font-family="system-ui,sans-serif">match_order</text>

  <!-- TABLA: spectators -->
  <rect x="381" y="644" width="200" height="200" rx="10" fill="#000" opacity="0.35"/>
  <rect x="380" y="640" width="200" height="200" rx="10" fill="#15122b"/>
  <rect x="380" y="640" width="200" height="36" rx="10" fill="#1a1640"/>
  <rect x="380" y="660" width="200" height="16" fill="#1a1640"/>
  <rect x="380" y="640" width="4" height="36" rx="2" fill="#D46AFA"/>
  <text x="394" y="663" font-size="12" font-weight="700" fill="#e0ddff" font-family="system-ui,sans-serif">spectators</text>
  <line x1="380" y1="676" x2="580" y2="676" stroke="#2e2a52" stroke-width="0.5"/>
  <rect x="380" y="640" width="200" height="200" rx="10" fill="none" stroke="#2e2a52" stroke-width="0.8"/>

  <rect x="381" y="676" width="198" height="22" fill="#1b1735"/>
  <circle cx="393" cy="687" r="5" fill="#F59E42"/>
  <text x="393" y="691" font-size="6" font-weight="800" fill="#1a0a00" text-anchor="middle" font-family="system-ui,sans-serif">PK</text>
  <text x="404" y="691" font-size="11" font-weight="600" fill="#F59E42" font-family="system-ui,sans-serif">id</text>

  <rect x="381" y="698" width="198" height="22" fill="#15122b"/>
  <circle cx="393" cy="709" r="5" fill="#7C6AFA" opacity="0.75"/>
  <text x="393" y="713" font-size="6" font-weight="800" fill="white" text-anchor="middle" font-family="system-ui,sans-serif">FK</text>
  <text x="404" y="713" font-size="11" font-weight="500" fill="#7C6AFA" font-family="system-ui,sans-serif">user_id</text>

  <rect x="381" y="720" width="198" height="22" fill="#1b1735"/>
  <circle cx="393" cy="731" r="2" fill="#2e2a52"/>
  <text x="404" y="735" font-size="11" font-weight="400" fill="#ccc8f0" font-family="system-ui,sans-serif">session_id</text>

  <rect x="381" y="742" width="198" height="22" fill="#15122b"/>
  <circle cx="393" cy="753" r="5" fill="#7C6AFA" opacity="0.75"/>
  <text x="393" y="757" font-size="6" font-weight="800" fill="white" text-anchor="middle" font-family="system-ui,sans-serif">FK</text>
  <text x="404" y="757" font-size="11" font-weight="500" fill="#7C6AFA" font-family="system-ui,sans-serif">tournament_id</text>

  <rect x="381" y="764" width="198" height="22" fill="#1b1735"/>
  <circle cx="393" cy="775" r="2" fill="#2e2a52"/>
  <text x="404" y="779" font-size="11" font-weight="400" fill="#ccc8f0" font-family="system-ui,sans-serif">mode</text>

  <rect x="381" y="786" width="198" height="22" fill="#15122b"/>
  <circle cx="393" cy="797" r="2" fill="#2e2a52"/>
  <text x="404" y="801" font-size="11" font-weight="400" fill="#ccc8f0" font-family="system-ui,sans-serif">joined_at</text>

  <rect x="381" y="808" width="198" height="22" fill="#1b1735"/>
  <circle cx="393" cy="819" r="2" fill="#2e2a52"/>
  <text x="404" y="823" font-size="11" font-weight="400" fill="#ccc8f0" font-family="system-ui,sans-serif">left_at</text>

  <!-- LEYENDA (centrada en la parte inferior) -->
  <rect x="315" y="1110" width="330" height="22" rx="6" fill="#15122b" stroke="#2e2a52" stroke-width="0.7"/>
  <circle cx="331" cy="1121" r="5" fill="#F59E42"/>
  <text x="331" y="1125" font-size="6" font-weight="800" fill="#1a0a00" text-anchor="middle" font-family="system-ui,sans-serif">PK</text>
  <text x="343" y="1125" font-size="10" fill="#7a75a8" font-family="system-ui,sans-serif">Primary key</text>
  
  <circle cx="417" cy="1121" r="5" fill="#7C6AFA" opacity="0.75"/>
  <text x="417" y="1125" font-size="6" font-weight="800" fill="white" text-anchor="middle" font-family="system-ui,sans-serif">FK</text>
  <text x="429" y="1125" font-size="10" fill="#7a75a8" font-family="system-ui,sans-serif">Foreign key</text>
  
  <line x1="513" y1="1121" x2="539" y2="1121" stroke="#7C6AFA" stroke-width="1.5" stroke-dasharray="4 2" opacity="0.7"/>
  <circle cx="513" cy="1121" r="2.5" fill="#7C6AFA" opacity="0.7"/>
  <text x="545" y="1125" font-size="10" fill="#7a75a8" font-family="system-ui,sans-serif">Relación FK</text>
</svg>